<?xml version="1.0" standalone="no"?>
<!DOCTYPE svg PUBLIC "-//W3C//DTD SVG 1.1//EN" "http://www.w3.org/Graphics/SVG/1.1/DTD/svg11.dtd" >
<!--
2013-9-30: Created.
-->
<svg>
<metadata>
Created by iconfont
</metadata>
<defs>

<font id="iconfont" horiz-adv-x="1024" >
  <font-face
    font-family="iconfont"
    font-weight="500"
    font-stretch="normal"
    units-per-em="1024"
    ascent="896"
    descent="-128"
  />
    <missing-glyph />
    
    <glyph glyph-name="x" unicode="x" horiz-adv-x="1001"
d="M281 543q-27 -1 -53 -1h-83q-18 0 -36.5 -6t-32.5 -18.5t-23 -32t-9 -45.5v-76h912v41q0 16 -0.5 30t-0.5 18q0 13 -5 29t-17 29.5t-31.5 22.5t-49.5 9h-133v-97h-438v97zM955 310v-52q0 -23 0.5 -52t0.5 -58t-10.5 -47.5t-26 -30t-33 -16t-31.5 -4.5q-14 -1 -29.5 -0.5
t-29.5 0.5h-32l-45 128h-439l-44 -128h-29h-34q-20 0 -45 1q-25 0 -41 9.5t-25.5 23t-13.5 29.5t-4 30v167h911zM163 247q-12 0 -21 -8.5t-9 -21.5t9 -21.5t21 -8.5q13 0 22 8.5t9 21.5t-9 21.5t-22 8.5zM316 123q-8 -26 -14 -48q-5 -19 -10.5 -37t-7.5 -25t-3 -15t1 -14.5
t9.5 -10.5t21.5 -4h37h67h81h80h64h36q23 0 34 12t2 38q-5 13 -9.5 30.5t-9.5 34.5q-5 19 -11 39h-368zM336 498v228q0 11 2.5 23t10 21.5t20.5 15.5t34 6h188q31 0 51.5 -14.5t20.5 -52.5v-227h-327z" />
    

    
    <glyph glyph-name="jianqie" unicode="&#58880;" d="M931.337874 48.543855l-27.954801 0-55.912672 0 0-55.910381 0 0 0-27.953655c0-15.451924-12.503267-27.954679-27.954801-27.954679s-27.955824 12.503778-27.955824 27.954679l0 27.953655 0 55.910381L232.441247 48.543855l-55.911648 0L176.529599 104.452189 176.529599 663.547811l0 0-55.911648 0L92.661103 663.547811c-15.43823 0-27.955824 12.502755-27.955824 27.954679 0 15.424294 12.517594 27.954679 27.955824 27.954679l27.955824 0 55.911648 0L176.528575 803.321204c0 15.451924 12.516571 27.954679 27.955824 27.954679s27.955824-12.502755 27.955824-27.954679l0-27.954679 0-55.909357 443.417767 0-51.462131-55.909357L232.441247 663.547811l0-518.336312L841.847103 781.318074l39.530915-39.529295L270.798381 104.452189l520.760372 0L791.558753 523.773394l55.911648 55.909357L847.470401 104.452189l55.912672 0 27.954801 0c15.452557 0 27.955824-12.530384 27.955824-27.954679C959.293698 61.045587 946.789407 48.543855 931.337874 48.543855z"  horiz-adv-x="1024" />

    
    <glyph glyph-name="11" unicode="&#58894;" d="M408.240333 76.319591c-87.60422 0-169.966043 34.114982-231.911884 96.060823S80.267627 316.687054 80.267627 404.291275s34.114982 169.966043 96.060823 231.911884 144.307663 96.060823 231.911884 96.060823c87.60422 0 169.96502-34.114982 231.91086-96.060823 61.946864-61.945841 96.061846-144.307663 96.061846-231.911884s-34.114982-169.96502-96.061846-231.91086C578.205353 110.434573 495.844553 76.319591 408.240333 76.319591zM408.240333 694.401652c-159.967318 0-290.110377-130.143059-290.110377-290.110377 0-159.967318 130.143059-290.109354 290.110377-290.109354 159.968341 0 290.110377 130.143059 290.110377 290.109354C698.35071 564.259616 568.208675 694.401652 408.240333 694.401652zM618.922121 168.820516l26.663916 26.663916 278.654204-278.654204-26.663916-26.663916-278.654204 278.654204Z"  horiz-adv-x="1024" />

    
    <glyph glyph-name="taiyang" unicode="&#59025;" d="M410.451186 570.844591c18.559705 52.116985 37.285185 104.69855 63.154365 177.339987 35.165918-63.018266 61.742203-110.642936 90.174766-161.592328 41.910529 36.626175 80.974219 70.765717 124.409474 108.724237 47.127344-60.059887-16.353456-116.89943 13.776771-173.581384 51.240011 7.505951 105.174388 15.405875 172.359556 25.245987-34.456766-57.733912-62.425771-104.59929-92.278683-154.620543 54.480822-18.469654 102.71436-34.821063 161.863505-54.872748-44.672432-52.034097-98.377588-61.308321-151.73789-88.180342 33.863249-42.407855 67.074651-84.000136 111.138216-139.180899-71.171969 0-124.736932 0-182.004217 0 12.261255-52.271504 23.934109-102.037954 37.147038-158.365844-74.072019-10.04989-103.780645 53.899584-159.629627 73.282027-18.532075-51.760874-35.648918-99.571786-60.963467-170.276105-37.350676 62.894446-63.134923 106.312304-90.38045 152.189168-40.267099-31.487132-77.680197-60.741409-117.625978-91.975784-55.80805 58.141188 10.930957 115.894543-13.93743 167.144788-52.18657-10.378371-102.45137-20.37505-161.576979-32.133861 2.799766 66.980507 46.876634 102.07991 69.671803 153.61054-46.934962 18.507516-93.824899 36.995589-146.82909 57.895595 33.486672 60.877509 100.06502 57.538461 142.991692 90.51041-33.989115 42.526559-65.390289 81.815377-108.262726 135.456065 69.396533 0 117.704772 0 176.843684 0-11.353582 54.272068-20.894889 99.876732-31.453363 150.34517C333.283666 665.429807 354.391403 585.658995 410.451186 570.844591zM512.858554 417.876688c-75.962066-0.536212-97.583502-14.232143-121.568776-76.54228-15.176654-39.425941-11.617595-84.680635 13.09218-118.948089 21.719674-30.121018 53.586452-49.338708 100.564393-49.704029 61.254086-0.476861 92.880387 31.441083 113.845884 79.285764 15.975856 36.45733 11.482519 78.703503-10.940167 111.590518l-4.479011 6.569626C582.979588 400.041484 549.062104 418.132514 512.858554 417.876688z"  horiz-adv-x="1024" />

    
    <glyph glyph-name="guanzhu" unicode="&#58895;" d="M491.2497 552.5977c58.7746 5.2944 118.5245-3.2698 174.1001-22.8295 50.6727-17.1094 98.3753-42.1784 142.919-71.6344 53.2651-35.5149 102.3548-77.3006 145.9011-124.2388 3.5537-4.1032 7.4622-8.6521 7.6581-14.3723 1.0833-6.9303-3.3219-13.0062-7.6581-17.9089-46.7632-50.3669-99.8854-94.8527-157.7525-131.9325-39.3549-24.8172-80.9294-46.5115-124.9744-61.7012-39.7976-14.9229-81.9248-23.4871-124.3158-26.0453-55.7185-2.913-111.9517 5.9879-164.3293 25.034-37.701 12.8453-73.6621 30.3794-107.9342 50.5787-65.3464 38.8916-124.7775 87.5357-176.6575 143.091-3.8735 4.388-8.3147 9.1678-8.5645 15.3326-1.1363 7.408 3.8386 13.7147 8.4936 18.8502 52.1818 55.8921 112.0206 104.766 177.7947 143.8175C341.7579 517.1538 414.7275 546.0951 491.2497 552.5977zM515.6991 517.6334c-39.1251-1.1722-78.0533-8.5812-115.0437-21.2836-4.9039-2.0426-10.8551-2.8241-14.3199-7.2841-20.9477-24.9621-35.0727-55.6263-40.0995-87.8544-6.6448-41.36 1.3322-84.9944 22.7945-121.005 20.5749-35.1781 53.408-63.0353 91.5007-77.5674 36.2629-14.0185 77.1099-15.8303 114.5101-5.2774 38.9272 10.8017 73.804 35.2301 97.5589 67.85 24.1446 32.8128 36.5447 73.9249 34.7509 114.6093-1.2782 39.4053-16.3976 77.9761-41.4136 108.3395-4.0864 5.7201-11.5676 6.5196-17.6248 9.0778C605.7048 511.4147 560.6485 518.9486 515.6991 517.6334zM132.0895 317.762c31.8207-33.3994 66.7685-63.7618 103.9548-91.0513 49.6224-36.0645 103.617-66.8717 161.8929-86.5393 54.4213-19.241 113.2838-26.8438 170.7053-19.8985 75.0142 9.1498 145.6023 40.3816 208.9769 80.5344 51.5941 33.2754 99.3537 72.5408 141.7617 116.9547-57.1026 59.4457-123.2475 110.631-196.6447 148.3844 25.7966-53.3348 28.0541-117.3814 6.5029-172.528-12.4711-32.459-32.958-61.7911-59.0754-84.7455-47.4548-42.6211-114.3661-62.2168-177.3151-52.1596-63.5006 9.0768-121.6335 48.4122-154.2717 103.5228-37.4172 61.2585-41.2727 141.4371-9.7718 205.9464C255.392 428.4289 189.2101 377.2436 132.0895 317.762zM512.3573 462.256c18.4962 2.5932 38.0927-0.036 54.5642-9.1498 28.0891-13.9825 47.7926-43.5635 49.5155-74.9392 0.9594-16.5398-2.2036-33.5772-10.4833-48.0574-10.3754-20.3062-29.0305-35.7997-50.297-43.6524-23.7179-8.1535-51.1344-6.5026-72.9885 6.1298-20.2181 10.5888-35.5514 29.4201-43.1555 50.8125-5.6144 16.9305-6.201 35.5319-1.51 52.7652C447.1698 430.1348 477.4275 457.3343 512.3573 462.256z"  horiz-adv-x="1024" />

    
    <glyph glyph-name="drop" unicode="&#58935;" d="M512-211.948803c-82.632668 0-159.633618 33.534323-216.872356 94.459277-58.0067 61.744113-89.953902 146.373481-89.953902 238.324084 0 150.674066 66.966252 258.495875 137.874706 372.614969 54.781261 88.213189 111.456827 179.39583 144.223189 299.658617 3.020649 11.161042 13.157742 18.840658 24.677166 18.840658s21.656517-7.730813 24.677166-18.840658c32.817559-120.313984 89.544323-211.547823 144.427979-299.761012 71.010849-114.119094 138.079496-221.940903 138.079496-372.563772 0-92.104195-31.742413-176.733563-89.39073-238.272886-57.085146-60.924954-134.444478-94.510474-217.79391-94.510474zM512 703.819809c-34.507075-90.926654-80.584771-165.111744-125.433728-237.351332-69.833308-112.429579-130.19509-209.551122-130.19509-345.633918 0-160.555172 109.920904-281.585921 255.628819-281.585921 145.912704 0 255.987201 121.030748 255.987201 281.585921 0 136.031598-60.412979 233.101945-130.348683 345.531523-44.951352 72.239588-91.131443 146.475876-125.638518 237.453727z"  horiz-adv-x="1024" />

    
    <glyph glyph-name="wenben" unicode="&#58963;" d="M851.367-212 199.589-212c-51.423 0-93.113 41.682-93.113 93.088L106.476 718.907C106.476 770.319 148.166 812 199.589 812l651.778 0c51.418 0 93.108-41.681 93.108-93.093l0-837.819C944.476-170.318 902.785-212 851.367-212zM897.919 672.365c0 51.408-41.689 93.088-93.108 93.088L246.141 765.453c-51.419 0-93.109-41.681-93.109-93.088l0-744.73c0-51.408 41.69-93.088 93.109-93.088l558.669 0c51.419 0 93.108 41.68 93.108 93.088L897.918 672.365zM246.141-25.818l558.669 0 0-46.547L246.141-72.365 246.141-25.818zM246.141 113.818l558.669 0 0-46.547L246.141 67.271 246.141 113.818zM246.141 253.453l558.669 0 0-46.547L246.141 206.906 246.141 253.453zM246.141 393.089l558.669 0 0-46.543L246.141 346.546 246.141 393.089zM246.141 532.729l325.888 0 0-46.547L246.141 486.182 246.141 532.729z"  horiz-adv-x="1024" />

    
    <glyph glyph-name="biaoqing2" unicode="&#58886;" d="M512-127.9936c-282.7008 0-512 229.1008-512 511.5264C0 665.9776 229.2992 896 512 896s512-230.0224 512-512.4672C1024 101.1072 794.7008-127.9936 512-127.9936zM512 832.0064c-247.36 0-448-201.28-448-448.416C64 136.4672 264.64-64 512-64s448 200.4672 448 447.5904C960 630.7264 759.36 832.0064 512 832.0064zM512 64.0064c-154.8032 0-283.8976 109.9392-313.5488 256l66.5984 0C293.6 209.7792 392.8512 128.0128 512 128.0128s218.3936 81.7664 246.944 191.9936l66.6048 0C795.8912 173.9456 666.8096 64.0064 512 64.0064zM704 512.0064c-35.3472 0-64 28.6528-64 63.9936 0 35.3536 28.6528 64.0064 64 64.0064S768 611.3536 768 576C768 540.6592 739.3472 512.0064 704 512.0064zM320 512.0064c-35.3472 0-64 28.6528-64 63.9936 0 35.3536 28.6528 64.0064 64 64.0064S384 611.3536 384 576C384 540.6592 355.3472 512.0064 320 512.0064z"  horiz-adv-x="1024" />

    
    <glyph glyph-name="zuanshi" unicode="&#58892;" d="M1019.30752 551.987992c-63.2393 89.925079-126.480646 179.889043-189.725062 269.833565-5.632277 8.894577-15.85306 15.20633-26.348088 15.20633l-307.738873 0-19.116383 0L196.690086 837.027887c-9.405207 0-16.522302-3.52529-21.412682-8.846482-0.163729-0.168846-0.326435-0.335644-0.490164-0.509606-0.059352-0.074701-0.12382-0.143263-0.187265-0.217964-1.476631-1.599428-2.871397-3.406586-4.133134-5.460362C115.051741 731.995739 59.657107 641.972423 4.24303 551.987992c-7.16212-11.641131-4.637624-25.411763 3.261277-34.772968 0.469698-0.697895 0.960885-1.38658 1.484817-2.053776C165.861964 314.507276 322.719454 113.799068 479.581038-86.848765c6.860245-8.78099 15.216563-11.543917 23.125697-10.31595 6.860245-0.010233 13.870916 2.99931 19.838837 10.31595 163.990958 200.647833 328.009546 401.356041 492.004597 602.010013 0.846274 1.033539 1.604544 2.109034 2.311649 3.207042C1024.459866 527.768381 1027.024272 541.00894 1019.30752 551.987992L1019.30752 551.987992zM934.669864 567.040826 747.672936 567.040826c21.363564 58.275241 42.720987 116.555599 64.085574 174.830841C852.72862 683.601542 893.693614 625.320161 934.669864 567.040826L934.669864 567.040826zM501.029536 761.992937c44.50461-64.97278 89.008196-129.965004 133.512806-194.95211l-271.124977 0C409.283996 632.027933 455.14858 697.010947 501.029536 761.992937L501.029536 761.992937zM660.872011 506.275881C607.85861 361.660202 554.840093 217.044524 501.836925 72.408379 450.287875 217.494779 398.546444 362.209718 344.889383 506.275881L660.872011 506.275881 660.872011 506.275881zM691.818837 590.696596c-42.366923 61.84965-84.727707 123.707486-127.08849 185.567369l195.10356 0C737.164605 714.409199 714.488139 652.550339 691.818837 590.696596L691.818837 590.696596zM310.661838 597.304084c-22.681582 59.785641-45.762253 119.441323-69.358671 178.958858l195.669448 0C394.869705 716.61647 352.764748 656.960789 310.661838 597.304084L310.661838 597.304084zM190.932966 739.342054c22.586414-57.310264 44.703131-114.748441 66.466808-172.296111L84.862162 567.045943C120.223531 624.479003 155.58183 681.91411 190.932966 739.342054L190.932966 739.342054zM280.245084 506.275881c55.512315-148.604526 108.930945-297.910017 162.123424-447.594131-116.629277 149.195997-233.253438 298.395064-349.863273 447.594131L280.245084 506.275881 280.245084 506.275881zM725.39863 506.275881l203.815989 0C806.007529 355.526505 682.813743 204.783269 559.620979 54.044126 614.872351 204.788385 670.137025 355.531622 725.39863 506.275881L725.39863 506.275881zM725.39863 506.275881"  horiz-adv-x="1024" />

    
    <glyph glyph-name="dui" unicode="&#58922;" d="M418.625868 219.168907M910.55474 685.048497 370.374934 144.867668 110.183983 405.059642c-10.948353 10.946306-28.644387 10.946306-39.591717 0-10.94733-10.946306-10.94733-28.64234 0-39.58967l279.988856-279.987832c5.459339-5.462408 12.626575-8.203846 19.794835-8.203846 7.16826 0 14.335497 2.741437 19.793812 8.203846l559.977711 559.975664c10.94733 10.946306 10.94733 28.643364 0 39.590694C939.19708 695.995827 921.475464 695.995827 910.55474 685.048497z"  horiz-adv-x="1024" />

    
    <glyph glyph-name="1" unicode="&#58947;" d="M737.863632-71.371258 284.087709-71.371258c-38.82833 0-70.417793 31.589462-70.417793 70.417793L213.669916 756.673791c0 38.82833 31.589462 70.417793 70.417793 70.417793l453.775924 0c38.82833 0 70.417793-31.589462 70.417793-70.417793l0-757.627257C808.281425-39.781796 776.691963-71.371258 737.863632-71.371258zM284.087709 788.205948c-17.386996 0-31.532157-14.145162-31.532157-31.532157l0-757.627257c0-17.386996 14.145162-31.532157 31.532157-31.532157l453.775924 0c17.386996 0 31.532157 14.145162 31.532157 31.532157L769.39579 756.673791c0 17.386996-14.145162 31.532157-31.532157 31.532157L284.087709 788.205948zM787.815301 146.763854 232.089427 146.763854c-10.738575 0-19.442818 8.705266-19.442818 19.442818s8.704243 19.442818 19.442818 19.442818l555.725874 0c10.737552 0 19.442818-8.705266 19.442818-19.442818S798.552853 146.763854 787.815301 146.763854zM591.134827 695.255976 432.863127 695.255976c-10.738575 0-19.442818 8.704243-19.442818 19.442818s8.704243 19.442818 19.442818 19.442818l158.2717 0c10.737552 0 19.442818-8.704243 19.442818-19.442818S601.872379 695.255976 591.134827 695.255976zM491.533364 84.342176l40.932248 0 0-40.932248-40.932248 0 0 40.932248Z"  horiz-adv-x="1024" />

    
    <glyph glyph-name="jia1" unicode="&#58936;" d="M825.6 422.4 544 422.4l0 275.2c0 19.2-12.8 32-32 32S480 716.8 480 697.6l0-281.6-275.2 0C179.2 416 166.4 403.2 166.4 384c0-19.2 12.8-32 32-32l275.2 0 0-275.2c0-19.2 12.8-32 32-32 19.2 0 32 12.8 32 32L537.6 352l275.2 0c19.2 0 32 12.8 32 32S844.8 422.4 825.6 422.4zM512 896C230.4 896 0 665.6 0 384s230.4-512 512-512 512 230.4 512 512S793.6 896 512 896zM512-57.6c-243.2 0-441.6 198.4-441.6 441.6S268.8 825.6 512 825.6s441.6-198.4 441.6-441.6S755.2-57.6 512-57.6z"  horiz-adv-x="1024" />

    
    <glyph glyph-name="zanting" unicode="&#58926;" d="M300.430932 45.49031l84.627423 0 0 677.019381-84.627423 0L300.430932 45.49031zM638.940622 722.50969l0-677.019381 84.627423 0 0 677.019381L638.940622 722.50969z"  horiz-adv-x="1024" />

    
    <glyph glyph-name="icondayu" unicode="&#58992;" d="M298.666667 134.912 298.666667 85.333333l426.666667 257.194667 0 43.392L298.666667 640l0-52.693333 389.034667-223.104L298.666667 134.912z"  horiz-adv-x="1024" />

    
    <glyph glyph-name="zonghe" unicode="&#59012;" d="M409.472 800 156.288 800C123.008 800 96 772.992 96 739.712l0-253.184c0-33.28 27.008-60.288 60.288-60.288l253.184 0c33.28 0 60.288 27.008 60.288 60.288L469.76 739.712C469.76 772.992 442.752 800 409.472 800L409.472 800zM421.504 486.528c0-6.656-5.376-12.032-12.032-12.032L156.288 474.496c-6.656 0-12.032 5.376-12.032 12.032L144.256 739.712c0 6.656 5.376 12.032 12.032 12.032l253.184 0c6.656 0 12.032-5.376 12.032-12.032L421.504 486.528 421.504 486.528zM409.472 341.76 156.288 341.76c-33.28 0-60.288-27.008-60.288-60.288l0-253.184c0-33.28 27.008-60.288 60.288-60.288l253.184 0c33.28 0 60.288 27.008 60.288 60.288L469.76 281.472C469.76 314.752 442.752 341.76 409.472 341.76L409.472 341.76zM421.504 28.288c0-6.656-5.376-12.032-12.032-12.032L156.288 16.256c-6.656 0-12.032 5.376-12.032 12.032L144.256 281.472c0 6.656 5.376 12.032 12.032 12.032l253.184 0c6.656 0 12.032-5.376 12.032-12.032L421.504 28.288 421.504 28.288zM867.712 800 614.528 800c-33.28 0-60.288-27.008-60.288-60.288l0-253.184c0-33.28 27.008-60.288 60.288-60.288l253.184 0c33.28 0 60.288 27.008 60.288 60.288L928 739.712C928 772.992 900.992 800 867.712 800L867.712 800zM879.744 486.528c0-6.656-5.376-12.032-12.032-12.032L614.528 474.496c-6.656 0-12.032 5.376-12.032 12.032L602.496 739.712c0 6.656 5.376 12.032 12.032 12.032l253.184 0c6.656 0 12.032-5.376 12.032-12.032L879.744 486.528 879.744 486.528 879.744 486.528zM867.712 341.76 614.528 341.76c-33.28 0-60.288-27.008-60.288-60.288l0-253.184c0-33.28 27.008-60.288 60.288-60.288l253.184 0c33.28 0 60.288 27.008 60.288 60.288L928 281.472C928 314.752 900.992 341.76 867.712 341.76L867.712 341.76zM879.744 28.288c0-6.656-5.376-12.032-12.032-12.032L614.528 16.256c-6.656 0-12.032 5.376-12.032 12.032L602.496 281.472c0 6.656 5.376 12.032 12.032 12.032l253.184 0c6.656 0 12.032-5.376 12.032-12.032L879.744 28.288 879.744 28.288 879.744 28.288zM879.744 28.288"  horiz-adv-x="1024" />

    
    <glyph glyph-name="tupian" unicode="&#58962;" d="M1111.100828 895.993573 73.903109 895.993573c-40.973729 0-73.913393-33.743071-73.913393-75.520206L-0.010284-52.02603c0-41.777135 33.743071-75.520206 73.913393-75.520206l1037.197718 0c40.973729 0 73.913393 33.743071 73.913393 75.520206l0 871.695991C1185.817627 862.250502 1152.074556 895.993573 1111.100828 895.993573zM1111.100828-52.02603 73.903109-52.02603 73.903109 171.320961l297.260384 294.850165 306.901261-313.328513c12.854503-16.068129 35.349884-13.65791 51.418012-1.606813l134.972282 125.331405 244.235559-256.286655c0.803406-0.803406 1.606813-1.606813 3.213626-2.410219L1111.100828-52.02603zM1111.100828 126.3302 893.377681 354.49763c-12.854503 13.65791-33.743071 14.461316-48.204387 3.213626L705.380574 233.183257 398.479312 543.298144c-6.427252 8.034064-16.068129 12.854503-26.512413 13.65791-10.444284 0-20.085161-3.213626-28.119226-10.444284l-270.747971-269.944565 0 543.102756 1037.197718 0L1110.297421 126.3302zM851.600546 516.785732c40.973729 0 73.913393 33.743071 73.913393 75.520206 0 41.777135-32.939664 75.520206-73.913393 75.520206S777.687154 634.083072 777.687154 592.305937C777.687154 550.528802 811.430224 516.785732 851.600546 516.785732z"  horiz-adv-x="1186" />

    
    <glyph glyph-name="asmkticon0250" unicode="&#59404;" d="M783.36 655.36C633.6 805.76 390.4 805.76 240.64 655.36 90.24 505.6 90.24 262.4 240.64 112.64s392.96-149.76 543.36 0S933.76 505.6 783.36 655.36zM701.44 482.56l-224-224c-3.84-3.84-8.96-5.76-13.44-5.76s-9.6 1.92-13.44 5.76l-128 128c-7.68 7.68-7.68 19.84 0 26.88 7.68 7.68 19.84 7.68 26.88 0l114.56-114.56 210.56 210.56c7.68 7.68 19.84 7.68 26.88 0C709.12 501.76 709.12 490.24 701.44 482.56z"  horiz-adv-x="1024" />

    
    <glyph glyph-name="gantanhao-copy" unicode="&#58908;" d="M512.601 773.785c-215.978 0-391.058-175.082-391.058-391.058 0-215.978 175.087-391.065 391.058-391.065 215.978 0 391.065 175.087 391.065 391.065 0 215.978-175.087 391.058-391.065 391.058v0zM578.411 643.515l-18.848-369.43h-94.247l-18.849 369.43h131.943zM510.164 98.525c-41.29 0-65.524 29.789-65.524 65.54 0 38.308 27.823 66.398 66.42 66.398 39.492 0 65.517-28.089 65.517-66.398-0.002-37.45-26.026-65.54-66.413-65.54v0z"  horiz-adv-x="1024" />

    
    <glyph glyph-name="wujiaoxing" unicode="&#58918;" d="M913.22368 460.45184c12.02176 11.71456 16.65024 25.45664 12.6976 37.66272-3.97312 12.20608-15.79008 20.5824-32.41984 23.01952l-209.03936 30.37184c-17.32608 2.51904-39.34208 18.49344-47.104 34.2016l-93.47072 189.41952c-7.41376 15.07328-19.06688 23.71584-31.90784 23.71584s-24.45312-8.64256-31.88736-23.71584l-93.4912-189.41952c-7.76192-15.70816-29.75744-31.68256-47.104-34.2016L130.47808 521.13408c-16.62976-2.43712-28.44672-10.81344-32.41984-23.01952-3.95264-12.20608 0.67584-25.94816 12.6976-37.66272l151.26528-147.43552c12.53376-12.24704 20.95104-38.11328 17.98144-55.37792l-35.69664-208.1792c-2.84672-16.56832 1.47456-30.39232 11.85792-37.94944 5.09952-3.70688 11.18208-5.55008 17.79712-5.55008 6.90176 0 14.37696 2.02752 21.95456 5.98016l186.96192 98.304c15.50336 8.15104 42.7008 8.15104 58.22464 0l186.96192-98.28352c14.90944-7.84384 29.3888-7.9872 39.75168-0.43008 10.36288 7.53664 14.70464 21.38112 11.85792 37.94944l-35.69664 208.15872c-2.99008 17.28512 5.44768 43.15136 17.98144 55.3984L913.22368 460.45184zM713.68704 252.43648l35.71712-208.1792c0.79872-4.64896 0.3072-7.04512 0.512-7.59808-0.96256 0-3.3792 0.3072-7.55712 2.47808l-186.96192 98.304c-24.35072 12.77952-62.48448 12.75904-86.81472 0l-186.96192-98.304c-4.17792-2.17088-6.59456-2.47808-7.0656-2.82624-0.3072 0.90112-0.77824 3.29728 0.02048 7.94624l35.71712 208.1792c4.62848 27.11552-7.14752 63.3856-26.8288 82.57536l-151.26528 147.43552c-3.3792 3.29728-4.38272 5.50912-4.87424 5.85728 0.75776 0.53248 2.88768 1.7408 7.5776 2.41664l209.01888 30.37184c27.21792 3.95264 58.0608 26.37824 70.22592 51.01568l93.47072 189.41952c2.10944 4.23936 3.8912 5.89824 4.07552 6.4512 0.75776-0.55296 2.56-2.21184 4.64896-6.4512l93.4912-189.41952c12.16512-24.63744 43.008-47.06304 70.20544-51.01568l209.03936-30.37184c4.7104-0.67584 7.29088-1.4336 7.3728-1.86368-0.28672-0.90112-1.29024-3.11296-4.68992-6.41024l-151.26528-147.43552C720.83456 315.82208 709.03808 279.552 713.68704 252.43648"  horiz-adv-x="1024" />

    
    <glyph glyph-name="eye-opened" unicode="&#58988;" d="M512 715.093c-191.147 0-460.8-157.013-460.8-290.133 0-85.333 267.947-267.947 460.8-267.947 184.32 0 460.8 196.267 460.8 267.947 0 85.333-252.587 290.133-460.8 290.133zM512 203.093c-187.733 0-409.6 175.787-414.72 221.867 0 92.16 232.107 244.053 414.72 244.053 192.853 0 407.893-189.44 414.72-242.347-15.36-49.493-245.76-223.573-414.72-223.573zM512 597.333c-88.747 0-162.133-73.387-162.133-162.133 0-90.453 71.68-162.133 162.133-162.133 88.747 0 162.133 73.387 162.133 162.133 0 90.453-73.387 162.133-162.133 162.133zM512 319.147c-63.147 0-116.053 52.907-116.053 116.053 0 64.853 51.2 116.053 116.053 116.053 63.147 0 116.053-52.907 116.053-116.053 0-64.853-52.907-116.053-116.053-116.053z"  horiz-adv-x="1024" />

    
    <glyph glyph-name="kefu" unicode="&#58891;" d="M933.395446 410.338878c0 232.730529-188.664917 421.395446-421.395446 421.395446-232.728482 0-421.392376-188.661847-421.395446-421.389306 0-0.001023 0-0.001023 0-0.002047l0-79.021751c0-29.173436 23.564695-52.66957 52.674687-52.66957 29.172413 0 52.674687 23.560602 52.674687 52.66957l0 79.021751c0 27.918863-21.585621 50.622958-48.955992 52.525284 25.497721 178.757267 179.198312 316.191382 365.003088 316.191382 185.804776 0 339.505367-137.434116 365.003088-316.191382-27.423583-1.90335-48.955992-24.664749-48.955992-52.525284l0-79.021751c0-29.173436 23.564695-52.66957 52.674687-52.66957 29.172413 0 52.674687 23.560602 52.674687 52.66957L933.397493 410.335808C933.395446 410.336832 933.395446 410.337855 933.395446 410.338878zM646.156466 153.518698c92.454692 48.39522 155.553799 145.231709 155.553799 256.82018 0 160.002111-129.707131 289.709241-289.709241 289.709241-160.002111 0-289.710264-129.707131-289.710264-289.709241 0-112.512517 64.137763-210.04383 157.844981-258.028705-94.215802-30.130228-176.249143-91.338265-232.372372-174.766372-8.118911-12.068873-4.916986-28.434609 7.151887-36.553521 12.068873-8.118911 28.434609-4.916986 36.553521 7.15291 71.986521 107.010199 192.232163 172.486446 323.616492 172.486446 131.479497 0 251.800863-65.571415 323.765895-172.708504 8.110725-12.075013 24.474414-15.288195 36.548404-7.17747s15.288195 24.474414 7.17747 36.548404C825.684282 61.988052 742.093469 123.809049 646.156466 153.518698zM274.964422 410.338878c0 130.910539 106.124016 237.035578 237.035578 237.035578 130.910539 0 237.034555-106.124016 237.034555-237.035578S642.910539 173.3033 512 173.3033C381.088438 173.3033 274.964422 279.42834 274.964422 410.338878z"  horiz-adv-x="1024" />

    
    <glyph glyph-name="biyan" unicode="&#58904;" d="M716.998 429.841c4.88 4.96 9.62 10.095 14.255 15.43 36.6-14.735 162.105-54.82 287.624 26.825 0 0-185.030-27.97-235.769 51.445 0.24 0.44 0.465 0.875 0.695 1.315 0 0-0.325-0.33-0.93-0.93-0.18 0.305-0.375 0.61-0.575 0.93l-6.89-8.385c-22.235-21.86-60.945-65.075-126.65-95.365-59.42-27.405-138.99-38.56-204.352-38.2-161.607 0.895-230.487 89.66-268.864 115.415-35.090 18.975-38.137 31.65-83.005 10.37-59.712-28.325-87.417-100.070-87.417-100.070 87.417 35.86 149.885 8.495 166.077-2.76 0.945-0.695 1.89-1.395 2.85-2.080l0.010-0.005c12.837-9.2 26.275-17.59 40.23-25.195-6.42-36.29-49.51-55.985-49.51-55.985 60.992 9.46 78.012 23.45 90 36.75 13.587-5.565 27.572-10.425 41.897-14.62-4.312-44.27-50.61-76.985-50.61-76.985 61.905 10.73 84.72 48.69 92.25 66.955 16.295-3.125 32.962-5.41 49.915-6.845 12.86-35.65-6.895-84.705-6.895-84.705 31.59 25.22 46.342 67.215 50.965 82.94 15.052 0.040 29.745 0.595 44.050 1.675 7.315-16.040 28.315-57.55 59.645-82.56 0 0-20.87 39.71-11.51 88.44 11.47 1.975 22.68 4.34 33.605 7.11 10.305-15.185 43.235-51.125 127.385-58.81 0 0-69.040 22.11-67.215 79.605 10.32 4.615 20.33 9.685 30.030 15.25 16.875-15.035 77.86-57.385 221.449-47.595-0.005 0-126.715 19.090-152.74 100.64z"  horiz-adv-x="1024" />

    
    <glyph glyph-name="haofangtuo400iconfontzhaoxiang" unicode="&#59094;" d="M512-68.608c-61.090816 0-120.367104 11.969536-176.183296 35.57888-53.899264 22.797312-102.300672 55.428096-143.858688 96.987136-41.558016 41.558016-74.189824 89.959424-96.987136 143.858688C71.36256 263.632896 59.392 322.910208 59.392 384s11.97056 120.367104 35.57888 176.183296c22.797312 53.900288 55.42912 102.300672 96.987136 143.858688 41.558016 41.55904 89.959424 74.189824 143.858688 96.987136C391.632896 824.638464 450.909184 836.608 512 836.608s120.367104-11.969536 176.183296-35.57888c53.899264-22.797312 102.300672-55.428096 143.858688-96.987136 41.558016-41.558016 74.189824-89.959424 96.987136-143.858688C952.63744 504.367104 964.608 445.089792 964.608 384c0-88.036352-25.302016-173.3888-73.170944-246.832128-7.719936-11.845632-23.581696-15.186944-35.42528-7.469056-11.844608 7.719936-15.188992 23.580672-7.468032 35.426304C890.978304 230.230016 913.408 305.915904 913.408 384c0 54.201344-10.609664 106.76736-31.53408 156.237824-20.215808 47.797248-49.163264 90.727424-86.035456 127.599616-36.873216 36.873216-79.804416 65.819648-127.60064 86.03648C618.76736 774.798336 566.201344 785.408 512 785.408s-106.76736-10.609664-156.237824-31.53408c-47.796224-20.215808-90.727424-49.163264-127.60064-86.03648-36.872192-36.873216-65.819648-79.803392-86.035456-127.599616C121.201664 490.76736 110.592 438.201344 110.592 384s10.609664-106.76736 31.53408-156.237824c20.215808-47.797248 49.163264-90.727424 86.035456-127.599616 36.873216-36.873216 79.804416-65.819648 127.60064-86.03648C405.23264-6.798336 457.798656-17.408 512-17.408c80.4864 0 158.121984 23.724032 224.513024 68.605952 11.712512 7.917568 27.62752 4.842496 35.546112-6.87104 7.917568-11.712512 4.842496-27.626496-6.87104-35.546112C690.296832-41.846784 602.745856-68.608 512-68.608zM307.207168 153.598976c-6.642688 0-13.193216 2.582528-18.10944 7.498752-7.791616 7.791616-9.72288 19.694592-4.795392 29.550592l136.532992 273.067008c2.477056 4.954112 6.494208 8.971264 11.449344 11.44832L705.35168 611.69664c9.856 4.929536 21.757952 2.997248 29.550592-4.795392 7.791616-7.791616 9.72288-19.694592 4.795392-29.550592L603.163648 304.283648c-2.477056-4.954112-6.494208-8.971264-11.449344-11.44832L318.64832 156.30336C315.011072 154.483712 311.093248 153.598976 307.207168 153.598976zM462.814208 433.185792l-98.37056-196.743168 196.742144 98.37056 98.37056 196.743168L462.814208 433.185792z"  horiz-adv-x="1024" />

    
    <glyph glyph-name="youxiang" unicode="&#58884;" d="M830.455808 578.574336c9.168896 6.85056 22.183936 4.583424 28.29312-3.844096 6.873088-9.168896 4.585472-22.181888-4.583424-28.291072L529.94048 310.933504c-7.63904-5.347328-16.807936-4.585472-23.709696 0L181.266432 546.43712c-9.168896 6.111232-10.696704 19.122176-4.583424 28.291072 6.90176 8.42752 19.124224 10.694656 28.291072 3.844096l312.743936-226.33472L830.455808 578.574336zM171.33568 719.245312l692.760576 0c22.943744 0 43.595776-9.168896 58.116096-24.446976 14.5408-14.5408 23.7056-35.19488 23.7056-57.37472l0-516.134912c0-22.153216-9.166848-42.805248-23.7056-58.109952l0 0 0 0 0 0c-15.282176-14.518272-35.172352-23.683072-58.116096-23.683072L171.33568 39.49568c-22.183936 0-42.809344 9.166848-57.348096 23.683072-15.280128 15.304704-24.471552 35.190784-24.471552 58.109952L89.516032 637.425664c0 22.17984 9.191424 42.83392 24.471552 57.37472l0 0C128.526336 710.078464 149.153792 719.245312 171.33568 719.245312L171.33568 719.245312zM864.096256 678.729728 171.33568 678.729728c-11.460608 0-21.417984-4.583424-29.057024-12.222464l0 0c-7.63904-7.63904-12.224512-17.598464-12.224512-29.0816l0-516.134912c0-11.45856 4.585472-22.153216 12.224512-29.054976 7.63904-7.641088 17.596416-12.222464 29.057024-12.222464l692.760576 0c11.485184 0 22.181888 4.579328 29.822976 12.222464l0 0c6.873088 6.899712 11.483136 17.596416 11.483136 29.054976L905.402368 637.425664c0 11.483136-4.610048 21.44256-11.483136 29.0816C886.278144 674.146304 875.58144 678.729728 864.096256 678.729728L864.096256 678.729728zM506.230784 310.933504c-2.265088 1.527808-3.792896 3.055616-4.583424 4.583424"  horiz-adv-x="1024" />

    
    <glyph glyph-name="shape" unicode="&#58901;" d="M989.866592 221.770935C971.000704 221.770935 955.733184 206.505185 955.733184 187.638923L955.733184-51.285155 68.26682-51.285155 68.26682 187.637777C68.26682 206.504038 52.983239 221.769789 34.133411 221.769789 15.283583 221.769789 1.0e-06 206.504039 1.0e-06 187.637777L0-85.41602C0-104.249017 15.283582-119.548032 34.13341-119.548032L34.13341-119.548032 989.866592-119.548032C1008.733626-119.548032 1024-104.281134 1024-85.41602L1024 187.638923C1024 206.504038 1008.733626 221.770935 989.866592 221.770935L989.866592 221.770935ZM365.283806 382.31639 477.866591 245.854872 477.866591 733.801434C477.866591 752.667693 493.150172 767.999974 512 767.999974 530.865887 767.999974 546.133409 752.667693 546.133409 733.801434L546.133409 247.154451 657.666624 382.31639C671.032301 395.781312 692.732602 395.781312 706.132691 382.31639 719.49952 368.883585 719.49952 347.084383 706.132691 333.651578L537.399606 129.160031C530.265967 121.993421 520.816392 118.926276 511.466612 119.427527 502.116831 118.926276 492.650049 121.993421 485.51641 129.160031L316.816589 333.651578C303.433704 347.084383 303.433704 368.883585 316.816589 382.31639 330.200622 395.781312 351.900923 395.781312 365.283806 382.31639L365.283806 382.31639Z"  horiz-adv-x="1024" />

    
    <glyph glyph-name="diqiu" unicode="&#58890;" d="M511.581468 679.411103M225.883587 466.691327M498.16797 768.180869l25.449625 0c44.163849-2.050706 88.164992-10.604522 129.219014-27.243481 85.606727-33.871435 157.853168-99.920734 199.441355-182.036963 26.436092-51.462069 40.429805-109.030206 41.668005-166.821423l0-13.72049c-1.221828-57.046251-14.838963-113.863281-40.634466-164.821883C828.190359 163.348578 791.747355 118.90332 747.660254 84.177424c-45.108361-35.57524-98.339726-60.815087-154.485467-73.03541-22.803355-5.14416-46.112224-7.537673-69.40779-8.930393l-25.475208 0c-30.538527 1.614777-61.011562 5.729491-90.456175 14.121626-71.304999 19.761066-136.410809 60.948117-185.036273 116.687606-34.199916 38.912242-60.307527 84.919065-76.271104 134.209678-11.685133 35.845393-17.638729 73.442686-18.582217 111.11161l0 13.690814c1.363044 69.925582 21.932522 139.396817 59.632145 198.358697 39.975457 62.997799 98.697883 113.964588 166.875658 144.349619C399.562185 755.254465 448.75149 765.951085 498.16797 768.180869L498.16797 768.180869zM425.054789 686.483172c-24.264637-30.491455-40.10951-66.635653-52.974515-103.167684 18.056238-4.53427 36.592406-6.507204 54.965869-9.277294 22.782889-2.349511 45.629223-4.425799 68.565609-4.604878-0.017396 55.547107 0.013303 111.093191-0.017396 166.657694C466.437292 729.942987 442.992323 709.313134 425.054789 686.483172L425.054789 686.483172zM526.278191 569.445596c31.000038 0.555655 61.986773 3.128247 92.610234 8.093329 10.413164 1.332345 20.736277 3.27765 30.92329 5.806239-15.048741 42.75885-34.43937 85.333504-66.246797 118.366851-15.545044 16.293081-34.929534 29.650297-57.238632 34.380018C526.236236 680.540833 526.314007 624.993726 526.278191 569.445596L526.278191 569.445596zM394.790508 717.867974c-54.157457-18.877953-103.561657-51.265594-142.4432-93.439112 28.439726-15.023158 58.913784-26.123984 90.032526-34.097586 16.250102 48.979528 39.049365 97.42182 75.778894 134.478807C410.168754 723.239308 402.493957 720.456938 394.790508 717.867974L394.790508 717.867974zM603.582835 725.034187c7.644097-7.046486 13.793144-15.468296 20.467147-23.381523 25.031093-33.435507 42.536792-71.88726 55.534827-111.411439 31.101345 8.109702 61.489446 19.269879 90.049922 34.093493C725.171054 672.524253 667.001213 708.159868 603.582835 725.034187L603.582835 725.034187zM231.922117 600.47531c-44.01547-57.132208-70.134337-127.864156-72.934103-199.99087 51.04763 0.090051 102.095259 0.030699 153.138796 0.030699 0.986467 54.038754 7.91732 108.013039 21.51399 160.347988C298.377668 570.133258 263.955694 583.004403 231.922117 600.47531L231.922117 600.47531zM688.246073 560.862103c13.599739-52.333926 20.526499-106.309234 21.500687-160.331615 51.077306 0.013303 102.151541 0 153.228847 0-3.003404 72.109318-28.930913 142.884244-73.070202 199.974497C757.952668 582.914352 723.449853 570.223309 688.246073 560.862103L688.246073 560.862103zM342.737992 400.651238c50.958602-0.26913 101.916181-0.047072 152.869666-0.12075L495.607658 538.808832c-44.35623 0.820692-88.747253 5.430686-132.115993 14.930037C350.309434 503.81483 343.874885 452.233034 342.737992 400.651238L342.737992 400.651238zM526.278191 538.822135c0-46.108131 0-92.199888 0.017396-138.291646 50.958602 0.090051 101.912088-0.165776 152.869666 0.132006-1.149173 51.586912-7.584746 103.168708-20.766976 153.105027C615.043864 544.210865 570.639538 539.646919 526.278191 538.822135L526.278191 538.822135zM158.959362 369.878374c2.871397-72.126714 28.936029-142.858662 72.979128-199.99087 31.999808 17.519002 66.468854 30.30726 101.703333 39.642882-13.613042 52.329832-20.48045 106.321514-21.543665 160.347988C261.054621 369.848699 210.006991 369.848699 158.959362 369.878374L158.959362 369.878374zM342.755388 369.758648c1.136893-51.599192 7.493671-103.245456 20.807908-153.165402 43.314505 9.665127 87.717807 14.121626 132.031059 14.97711 0.017396 46.090734 0.017396 92.199888 0.017396 138.290623C444.654172 369.788324 393.696594 369.997078 342.755388 369.758648L342.755388 369.758648zM526.278191 369.860978l0-138.278343c44.391023-0.807389 88.781022-5.473665 132.168182-14.915711 12.984732 50.013067 19.85214 101.612259 20.527522 153.271826C628.075669 369.758648 577.177442 369.902934 526.278191 369.860978L526.278191 369.860978zM709.733457 369.860978c-0.896416-54.021358-7.91732-107.995643-21.471011-160.330592 35.218106-9.28855 69.673849-22.081924 101.660354-39.630602 44.13315 57.075927 70.049403 127.851876 73.052806 199.947891C811.898301 369.878374 760.806669 369.848699 709.733457 369.860978L709.733457 369.860978zM372.109949 187.148633c14.912641-42.860157 34.45165-85.46551 66.276473-118.528534 15.527648-16.262382 34.918277-29.607318 57.207933-34.30327 0.047072 55.530734 0 111.076818 0.017396 166.624948C454.153524 200.122109 412.667667 195.899948 372.109949 187.148633L372.109949 187.148633zM526.278191 200.959174c0.017396-55.547107-0.029676-111.11161 0.034792-166.657694 29.093619 6.148024 52.525284 26.705222 70.433142 49.505507 24.312732 30.53341 40.258912 66.720587 53.052287 103.34267-18.59552 4.491291-37.614689 6.65763-56.507992 9.395998C570.998719 198.715063 548.690644 200.822051 526.278191 200.959174L526.278191 200.959174zM252.286933 146.040377c44.446281-48.154743 102.586446-83.83743 165.991522-100.639095-36.729529 37.148062-59.665915 85.58933-75.886341 134.671189C311.200718 172.207339 280.876062 160.777009 252.286933 146.040377L252.286933 146.040377zM679.555134 180.10317c-16.322757-49.112558-39.211047-97.614202-76.018348-134.808312 63.362096 16.950044 121.54524 52.495608 166.009941 100.667747C741.134631 161.01237 710.644199 172.027238 679.555134 180.10317L679.555134 180.10317zM679.555134 180.10317"  horiz-adv-x="1024" />

    
    <glyph glyph-name="xiangji" unicode="&#59149;" d="M942.202531 656.197402 773.103228 656.197402l-98.305957 98.543364c-0.122797 0.081864-0.199545 0.200568-0.319272 0.323365l-0.200568 0.159636c-14.776542 14.612813-35.057447 23.63735-57.459666 23.63735L412.379607 778.861116c-23.760147 0-44.919049-10.30367-59.892065-26.434046l-0.081864 0.2415-96.270601-96.470145L83.559603 656.198425c-45.160549 0-81.775468-36.614919-81.775468-81.775468l0-490.652809c0-45.160549 36.614919-81.775468 81.775468-81.775468l858.642928 0c45.160549 0 81.775468 36.614919 81.775468 81.775468L1023.977999 574.421934C1023.977999 619.582483 987.36308 656.197402 942.202531 656.197402zM983.090776 83.769125c0-22.520923-18.3663-40.888246-40.888246-40.888246L83.559603 42.880879c-22.520923 0-40.888246 18.3663-40.888246 40.888246L42.671357 574.421934c0 22.520923 18.3663 40.888246 40.888246 40.888246l172.574451 0 16.931624 0 12.016685 11.979846 49.473785 49.588395 1.038656-2.993171 46.914496 50.749848c7.949043 8.627495 18.566868 13.337773 29.868261 13.337773l204.439182 0c10.82351 0 21.045315-4.195555 29.030174-12.139481l98.305957-98.506525 11.975752-12.016685 16.972557 0 169.099303 0c22.520923 0 40.888246-18.3663 40.888246-40.888246L983.08873 83.769125zM512.881578 615.31018c-146.778948 0-265.770016-118.991068-265.770016-265.729084 0-146.823973 118.991068-265.810948 265.770016-265.810948 146.783041 0 265.770016 118.986975 265.770016 265.810948C778.651594 496.318088 659.664619 615.31018 512.881578 615.31018zM512.881578 124.656347c-124.020618 0-224.882793 100.903108-224.882793 224.923726 0 123.979686 100.862175 224.841861 224.882793 224.841861S737.763348 473.559758 737.763348 349.580073C737.763348 225.559455 636.902196 124.656347 512.881578 124.656347zM512.881578 533.533688c-101.659331 0-183.994548-82.335217-183.994548-183.953615 0-101.622492 82.335217-184.03548 183.994548-184.03548s183.994548 82.412988 183.994548 184.03548C696.876126 451.198471 614.540909 533.533688 512.881578 533.533688zM512.881578 206.431815c-78.901001 0-143.107325 64.206324-143.107325 143.148257 0 78.860069 64.206324 143.066393 143.107325 143.066393s143.107325-64.206324 143.107325-143.066393C655.98788 270.638139 591.782579 206.431815 512.881578 206.431815z"  horiz-adv-x="1024" />

    
    <glyph glyph-name="lingdang1" unicode="&#58982;" d="M803.669333 210.261333 803.669333 484.727467c0 142.830933-103.3728 261.307733-239.274667 285.405867L564.394667 791.927467c0 18.8416-15.291733 34.133333-34.116267 34.133333l-34.133333 0c-18.858667 0-34.133333-15.291733-34.133333-34.133333l0-21.896533c-135.6288-24.3712-238.592-142.6944-238.592-285.303467L223.419733 210.261333l-119.808-96.9728 0-55.330133L922.794667 57.9584l0 55.330133L803.669333 210.261333zM888.661333 92.091733 137.745067 92.091733l0 4.898133 107.127467 86.7328 12.663467 10.24L257.536 210.261333 257.536 484.727467c0 141.1584 114.8416 256 256 256 141.124267 0 255.982933-114.8416 255.982933-256L769.518933 210.261333l0-16.2304 12.561067-10.24 106.564267-86.7328L888.644267 92.091733zM513.1776-61.2352c47.1552 0 85.418667 38.161067 85.418667 85.333333L427.810133 24.098133C427.844267-23.074133 466.090667-61.2352 513.1776-61.2352z"  horiz-adv-x="1024" />

    
    <glyph glyph-name="zuanshi1" unicode="&#58909;" d="M513.401651-102.864207L1.589501 479.594045 203.094899 864.990277h620.620729l201.505398-385.396232-511.819375-582.458252z m-407.418048 595.008086l407.418048-463.657489 407.418048 463.657489-149.615409 286.15356H255.591787L105.983603 492.143879zM513.401651 152.770931l-302.005221 334.517745 64.360347 58.096267 237.644874-263.228618 237.652099 263.228618 64.345897-58.096267z"  horiz-adv-x="1025" />

    
    <glyph glyph-name="dayu-gengduo" unicode="&#58887;" d="M262.4 896l-38.4-44.8L704 384l-480-467.2 38.4-44.8 537.6 512z"  horiz-adv-x="1024" />

    
    <glyph glyph-name="huifu" unicode="&#58940;" d="M434.179099 605.25415c0.460488 0 0.661056-0.701988 0.660032-2.473331l0.030699-0.002047s-0.030699-66.912969 0.01842-67.88818c1.118474-32.364105 25.544793-59.232033 56.899918-62.543451l0.196474-0.02149c80.164784-7.610328 150.936641-39.972387 210.352869-96.185666 42.732244-40.428781 79.163991-92.449575 108.37222-154.73106 0.942465-2.00875 0.64366-5.034666-1.454118-5.034667-0.822738 0-1.922792 0.465604-3.332909 1.641383-62.420655 52.004421-182.216042 91.489714-307.21801 94.098122l-0.004093-0.052189c-34.07098-0.245593-62.602803-28.336372-63.815421-62.883189-0.051165-0.967024-0.025583-63.09706-0.01842-84.131119 0-1.534959-0.134053-2.302439-0.645706-2.302439-0.483001 0-1.305739 0.683569-2.670829 2.050706-52.270481 52.290947-212.9316 205.237361-212.9316 205.237361-3.745301 4.842285-5.802146 10.958586-5.802147 17.334807 0 7.471159 2.762927 14.421454 7.789407 19.630083l0.031723 0.017396S380.981503 552.521135 431.99741 603.549322c1.019213 1.017166 1.728364 1.704828 2.181689 1.704828m-0.02149 49.118697c-13.808494-0.00614-26.222221-5.4225-36.899398-16.09763-47.924499-47.936779-197.520609-183.89017-208.949916-194.270588a48.492434 48.492434 0 0 1-3.048429-2.899027c-13.906731-14.410198-21.565155-33.493835-21.565155-53.738925 0-17.162892 5.705955-33.990139 16.067954-47.387263a49.051159 49.051159 0 0 1 4.984524-5.523807c1.602498-1.524726 160.817686-153.122423 212.059744-204.384947 10.906397-10.910491 23.494087-16.442484 37.412075-16.442484 22.714328 0 42.504046 15.465227 48.124043 37.610596 1.470491 5.791913 1.64036 10.656711 1.64036 13.82896l-0.001023 1.656733c-0.007163 18.565844-0.026606 73.814146 0.008186 81.136925 0.499373 8.026814 7.442506 15.028275 15.061021 15.083533 0.274246 0.002047 0.548492 0.00614 0.822738 0.01228 124.785028-3.048429 227.724515-43.618427 274.606265-82.678024 12.918217-10.763135 26.040073-13.021571 34.773991-13.021572 17.503653 0 33.561373 8.821923 42.953278 23.598465 9.612938 15.121396 10.751878 34.82004 2.972705 51.408856-31.82073 67.854411-71.886237 124.901685-119.086236 169.556721-33.497928 31.692816-70.751391 57.029878-110.726847 75.309196-39.9642 18.273179-83.173304 29.736255-128.426975 34.065864-6.872524 0.728594-12.488429 7.265474-12.942776 14.976086-0.024559 5.802146-0.01842 43.281759-0.007164 66.584488a49.514717 49.514717 0 0 1-0.130983 3.626597c-0.218988 3.904936-0.801249 7.575536-1.766226 11.136641-5.874801 21.698185-25.578562 36.853349-47.913243 36.85335l-0.022513-0.001024z"  horiz-adv-x="1024" />

    
    <glyph glyph-name="zuoxuanzhuan" unicode="&#58885;" d="M248.69888 459.4944l-32.85504-36.56704c18.67264 168.54528 160.99328 299.61216 333.824 299.61216 185.52832 0 335.9232-151.02464 335.9232-337.32608 0-186.29632-150.39488-337.32096-335.9232-337.32096-126.8224 0-237.22496 70.57408-294.39488 174.7456h-50.74944c60.55424-129.45408 191.5648-219.0848 343.41888-219.0848 209.4336 0 379.2128 170.48576 379.2128 380.78976s-169.7792 380.79488-379.2128 380.79488c-195.38432 0-356.25472-148.38784-376.95488-339.05152l-29.48096 32.8704-0.00512 0.10752-44.61568-0.10752 97.28512-107.07456 99.88608 107.7248-45.35808-0.11264z"  horiz-adv-x="1024" />

    
    <glyph glyph-name="upload" unicode="&#59051;" d="M887.167 272.576v-237.567c0-24.091-19.522-43.624-43.613-43.624h-663.084c-24.091 0-43.636 19.533-43.636 43.624v237.567c0 24.091 19.533 43.624 43.624 43.624s43.624-19.533 43.624-43.624v-193.943h575.837v193.943c0 24.091 19.533 43.624 43.624 43.624s43.624-19.533 43.624-43.624zM369.131 524.785l99.246 101.328v-377.735c0-24.092 19.533-43.624 43.624-43.624s43.624 19.532 43.624 43.624v377.73l99.241-101.319c8.544-8.725 19.856-13.099 31.176-13.099 11.007 0 22.035 4.145 30.521 12.457 17.212 16.862 17.502 44.481 0.645 61.691l-174.023 177.678c-8.205 8.38-19.439 13.1-31.167 13.1-11.723 0-22.957-4.719-31.163-13.096l-174.039-177.678c-16.862-17.216-16.581-44.834 0.635-61.691 17.211-16.862 44.829-16.572 61.682 0.634z"  horiz-adv-x="1024" />

    
    <glyph glyph-name="wenhao" unicode="&#59389;" d="M527.36 813.056c53.76 0 105.984-10.24 155.136-30.208 51.2-20.48 96.768-51.2 136.192-90.624s69.632-84.992 90.624-136.192c19.968-49.152 30.208-101.376 30.208-155.136s-10.24-105.984-30.208-155.136c-20.48-51.2-51.2-96.768-90.624-136.192-39.424-39.424-84.992-69.632-136.192-90.624-49.152-19.968-101.376-30.208-155.136-30.208s-105.984 10.24-155.136 30.208c-51.2 20.48-96.768 51.2-136.192 90.624-39.424 39.424-69.632 85.504-90.624 136.192-19.968 49.152-30.208 101.376-30.208 155.136s10.24 105.984 30.208 155.136c20.48 51.2 51.2 96.768 90.624 136.192 39.424 39.424 84.992 69.632 136.192 90.624 49.664 20.48 101.888 30.208 155.136 30.208m0 46.08c-117.248 0-234.496-44.544-324.096-134.144-178.688-178.688-178.688-468.992 0-647.68 89.6-89.6 206.848-134.144 324.096-134.144s234.496 44.544 324.096 134.144c178.688 178.688 178.688 468.992 0 647.68-89.6 89.088-206.848 134.144-324.096 134.144zM528.384 637.44c-43.008 0-77.824-11.776-103.936-34.816-26.112-23.04-41.984-56.832-47.616-100.352l58.88-7.168c5.12 32.768 15.872 56.32 32.256 71.68 16.384 15.36 36.864 23.04 61.44 23.04 25.088 0 46.592-8.704 64-25.6 17.408-16.896 26.112-36.352 26.112-58.88 0-12.288-3.072-23.552-8.704-34.304-6.144-10.24-18.944-24.576-38.912-41.984-19.968-17.408-33.792-30.72-41.472-39.936-10.24-12.8-17.92-25.088-22.528-37.376-6.144-16.384-9.728-35.84-9.728-58.368 0-3.584 0-9.728 0.512-17.408h55.296c0.512 23.04 2.048 39.424 4.608 49.664 2.56 10.24 7.168 19.456 12.8 27.136s17.92 19.968 36.864 36.864c27.648 24.576 46.592 45.568 56.32 62.976 9.728 17.408 14.336 35.84 14.336 56.32 0 35.328-13.824 65.536-40.96 90.112-27.648 26.112-64 38.4-109.568 38.4z m-0.512-402.432c-19.456 0-35.328-15.872-35.328-35.328 0-19.456 15.872-35.328 35.328-35.328 19.456 0 35.328 15.872 35.328 35.328-0.512 19.456-15.872 35.328-35.328 35.328z"  horiz-adv-x="1024" />

    
    <glyph glyph-name="up" unicode="&#59202;" d="M171.842 241.71c0 5.908 2.271 11.135 6.816 15.68l317.662 317.66c4.545 4.545 9.77 6.818 15.677 6.818 5.909 0 11.135-2.273 15.68-6.818l317.663-317.66c4.544-4.545 6.816-9.771 6.816-15.68s-2.272-11.134-6.816-15.679l-34.084-34.083c-4.543-4.545-9.77-6.816-15.68-6.816-5.906 0-11.133 2.271-15.678 6.816l-267.898 267.899-267.901-267.899c-4.543-4.545-9.77-6.816-15.678-6.816s-11.135 2.271-15.678 6.816l-34.083 34.083c-4.545 4.545-6.816 9.771-6.816 15.679h-0.002z"  horiz-adv-x="1024" />

    
    <glyph glyph-name="icon" unicode="&#58899;" d="M829.776 766.775h-635.554c-40.331 0-73.333-33.070-73.333-73.486v-476.453c0-40.415 33.003-61.247 73.333-61.247h293.333c40.331 0 96.668-30.095 125.182-58.681l42.969-45.809c11.064-11.086 21.365-17.808 29.803-17.808 13.31 0 22.046 18.061 22.046 42.78 0 40.415 33.002 79.518 73.332 79.518h48.889c40.331 0 73.334 20.831 73.334 61.247v476.453c0 40.415-33.004 73.486-73.334 73.486zM854.221 216.836c0-13.276-11.195-13.454-24.445-13.454h-48.889c-53.949 0-99.854-40.74-116.015-89.42l-17.568 20.346c-37.718 37.807-106.396 69.073-159.748 69.073l-293.333 0c-13.249 0-24.445 0.179-24.445 13.454l0 476.453c0 13.276 11.196 24.496 24.445 24.496h635.554c13.25 0 24.445-11.221 24.445-24.496l0-476.453zM292 546.317h244.444c13.498 0 24.445 10.969 24.445 24.495 0 13.527-10.946 24.496-24.445 24.496h-244.444c-13.497 0-24.445-10.969-24.445-24.496-0-13.526 10.947-24.495 24.445-24.495zM707.556 472.829h-415.555c-13.497 0-24.445-10.969-24.445-24.495 0-13.527 10.947-24.496 24.445-24.496h415.555c13.497 0 24.444 10.969 24.444 24.496 0 13.527-10.946 24.495-24.444 24.495zM707.556 374.848h-415.555c-13.497 0-24.445-10.969-24.445-24.495 0-13.526 10.947-24.496 24.445-24.496h415.555c13.497 0 24.444 10.97 24.444 24.496 0 13.526-10.946 24.495-24.444 24.495z"  horiz-adv-x="1024" />

    
    <glyph glyph-name="biaoqian" unicode="&#58937;" d="M1005.055436 298.489791l-28.044278 29.421654 0.02258 0.02258-39.289085 41.208379L458.327497 871.907211l-21.947696 23.031533-31.250628-5.915943L164.269019 843.456494l-7.632018-0.451599L116.1286 840.566262 104.206395 801.773936l-74.98796-244.089085-8.648115-28.134598 17.431709-23.708931 430.17032-584.955766 34.795678-47.327541 47.192062 34.998897 47.124322 34.953738 19.396163-20.34452 42.359956 40.711621 45.408247 43.647012 72.029989 69.252657 113.080309 84.923131 46.311444 34.773098-14.880176 20.231621 42.540595 41.389019L1005.055436 298.489791 1005.055436 298.489791zM834.870474 235.107916l19.576803-26.621742-115.92538-87.068225 0 0-29.105535-21.857376 0.15806 0.09032-143.676119-106.599868-50.579052-37.52785L85.148931 540.501521l74.98796 244.089085L419.309372 800.057861 830.941566 240.459361l-0.180639-0.13548L834.870474 235.107916 834.870474 235.107916zM856.366571 235.491775l-1.196736 1.648335 0 0-10.09323 13.7286L433.44441 810.467211l-5.644983 7.699757-9.528732-0.564498-111.048115-6.615921 108.767541 20.57032 479.394576-502.764807-0.15806-0.15806 4.719206-4.651466 22.805733-23.91215L856.366571 235.491775 856.366571 235.491775zM332.625006 685.103418c-13.435061 9.077133-29.692613 14.405998-47.101742 14.383418-11.606086 0-22.715413-2.348313-32.786064-6.615921-15.128556-6.390121-27.976538-17.07043-37.053671-30.505491-9.077133-13.435061-14.383418-29.692613-14.383418-47.101742 0-11.606086 2.348313-22.715413 6.615921-32.786064 6.412701-15.128556 17.07043-27.976538 30.505491-37.053671 13.435061-9.077133 29.692613-14.405998 47.101742-14.383418 11.606086 0 22.715413 2.348313 32.786064 6.615921 15.128556 6.412701 27.976538 17.07043 37.053671 30.505491 9.077133 13.435061 14.405998 29.692613 14.383418 47.101742 0 11.606086-2.348313 22.715413-6.615921 32.786064C356.740375 663.178302 346.060066 676.026284 332.625006 685.103418L332.625006 685.103418zM346.985843 589.296759c-5.057905-11.967365-13.52538-22.150915-24.183109-29.353914-10.657729-7.180419-23.437971-11.380287-37.279471-11.380287-9.235193 0-17.973627 1.874135-25.966924 5.238545-11.967365 5.057905-22.150915 13.52538-29.353914 24.183109-7.180419 10.657729-11.380287 23.437971-11.380287 37.279471 0 9.235193 1.874135 17.973627 5.238545 25.966924 5.057905 11.967365 13.52538 22.150915 24.160529 29.353914 10.657729 7.180419 23.437971 11.380287 37.279471 11.380287 9.235193 0 17.973627-1.874135 25.966924-5.238545 11.967365-5.057905 22.150915-13.52538 29.353914-24.183109 7.180419-10.657729 11.380287-23.437971 11.380287-37.279471C352.224388 606.02849 350.350254 597.267475 346.985843 589.296759L346.985843 589.296759z"  horiz-adv-x="1024" />

    
    <glyph glyph-name="youshangjiantou" unicode="&#58889;" d="M323.48909 168.884664l385.776204 392.199497a31.872918 31.872918 0 0 0 1.455142-9.293667l1.76111-213.20687c0.065492-8.010441 6.612605-14.450107 14.623045-14.383592 8.010441 0.064468 14.450107 6.611581 14.383592 14.622023l-1.76111 213.207893c-0.134053 16.237823-6.582929 31.452339-18.159592 42.83969-11.576663 11.387351-26.895557 17.58347-43.132356 17.448394l-213.207893-1.759063a14.4542 14.4542 0 0 1-10.220782-4.332678 14.458293 14.458293 0 0 1-4.16281-10.289344c0.065492-8.010441 6.612605-14.450107 14.623046-14.383592l213.207893 1.75804c3.52222 0.029676 6.958482-0.518816 10.209526-1.586125L302.810119 189.225945c-4.755304-4.835122-3.981684-13.308097 1.728364-18.925025 5.710049-5.615904 14.195304-6.251378 18.950607-1.416256z"  horiz-adv-x="1024" />

    
    <glyph glyph-name="xia" unicode="&#58881;" d="M726.613333 502.613333c-12.48 12.48-32.746667 12.48-45.226666 0L512 333.226667 342.613333 502.613333c-12.48 12.48-32.746667 12.48-45.226666 0-6.293333-6.293333-9.386667-14.4-9.386667-22.613333s3.093333-16.426667 9.386667-22.613333l192-192c12.48-12.48 32.746667-12.48 45.226666 0l192 192c12.48 12.48 12.48 32.746667 0 45.226666z"  horiz-adv-x="1024" />

    
    <glyph glyph-name="ICON-zhuanhuan" unicode="&#58984;" d="M320 624l144-148.48v-43.52h-46.528L272 576 176.064 480V719.936H416L320 624z m288 95.936L704 624 560 475.52v-43.52h46.528L752 576l95.936-96V719.936H608zM272 192L176.064 288v-239.936H416L320 144l144 148.48v43.52h-46.528L272 192z m334.528 144H560v-43.52L704 144l-96-95.936h239.936V288L752 192 606.528 336z"  horiz-adv-x="1024" />

    
    <glyph glyph-name="jisuanqilishuai" unicode="&#58882;" d="M819.2 861.867h-614.4c-18.773 0-34.133-15.36-34.133-34.133v-887.467c0-18.773 15.36-34.133 34.133-34.133h614.4c18.773 0 34.133 15.36 34.133 34.133v887.467c0 18.773-15.36 34.133-34.133 34.133zM375.467 42.667h-68.267v68.267h68.267v-68.267zM375.467 213.333h-68.267v68.267h68.267v-68.267zM375.467 384h-68.267v68.267h68.267v-68.267zM546.133 42.667h-68.267v68.267h68.267v-68.267zM546.133 213.333h-68.267v68.267h68.267v-68.267zM546.133 384h-68.267v68.267h68.267v-68.267zM716.8 42.667h-68.267v68.267h68.267v-68.267zM716.8 213.333h-68.267v68.267h68.267v-68.267zM716.8 384h-68.267v68.267h68.267v-68.267zM716.8 588.8h-409.6v136.533h409.6v-136.533z"  horiz-adv-x="1024" />

    
    <glyph glyph-name="mima" unicode="&#58974;" d="M987.982475 493.956834H519.26612v94.739954c0 100.973955 101.242306 182.038328 210.443973 182.664481 106.697057-0.590028 191.313641-80.009891 191.31364-182.664481v-40.168364c0-11.097003 8.033329-20.083322 19.121731-20.083323 11.107324 0 19.140653 8.988039 19.140653 20.083323v40.168364c0 125.130708-100.588631 219.712404-229.576024 220.926865-131.135923-1.21446-248.706357-97.832872-248.706357-220.926865v-94.739954c-76.524768 0-114.787152-55.543502-114.787152-126.18519v-261.09523c0-77.505282 46.837576-148.398119 124.353178-148.398118h497.414434c77.507002 0 105.222846 70.892837 105.222846 148.398118V367.773364c-0.00172 77.515603-27.717565 126.18347-105.224567 126.18347z m66.960463-396.994383c0-55.459212-34.264642-100.420051-76.524768-100.420051H481.002016c-42.261847 0-76.524768 44.960839-76.524768 100.420051V355.274399c0 55.459212 34.264642 100.420051 76.524768 100.420051h497.414433c42.261847 0 76.524768-44.960839 76.524769-100.420051v-258.311948zM737.29617 387.856686c-66.454724 0-120.505093-54.05037-120.505094-120.505093 0-59.711544 40.428115-109.043408 97.504314-118.516544-0.073969-0.681199-3.71735-1.278108-3.717349-1.99027v-73.777611h38.262384v73.777611c0 0.712162 3.934095 1.309071 3.867007 1.99027 57.069319 9.473135 102.962505 58.804999 102.962505 118.516544 0 66.454724-51.920763 120.505093-118.373767 120.505093z m0-200.840102c-44.288241 0-80.336729 36.046768-80.336729 80.336729 0 44.286521 36.046768 80.336729 80.336729 80.336729 44.27792 0 80.336729-36.048488 80.336729-80.336729-0.00172-44.289961-36.060529-80.336729-80.336729-80.336729z m0 0"  horiz-adv-x="1448" />

    
    <glyph glyph-name="jia" unicode="&#58932;" d="M934.4 422.4h-384v384c0 20.48-17.92 38.4-38.4 38.4s-38.4-17.92-38.4-38.4v-384h-384c-20.48 0-38.4-17.92-38.4-38.4s17.92-38.4 38.4-38.4h384v-384c0-20.48 17.92-38.4 38.4-38.4s38.4 17.92 38.4 38.4v384h384c20.48 0 38.4 17.92 38.4 38.4s-17.92 38.4-38.4 38.4z"  horiz-adv-x="1024" />

    
    <glyph glyph-name="cuowu" unicode="&#58883;" d="M706.56 527.36L563.2 384l143.36-143.36c5.12-5.12 10.24-15.36 10.24-25.6 0-20.48-15.36-35.84-35.84-35.84-10.24 0-20.48 5.12-25.6 10.24L512 332.8 368.64 189.44c-5.12-5.12-15.36-10.24-25.6-10.24-20.48 0-35.84 15.36-35.84 35.84 0 10.24 5.12 20.48 10.24 25.6L460.8 384 317.44 527.36c-5.12 5.12-10.24 15.36-10.24 25.6 0 20.48 15.36 35.84 35.84 35.84 10.24 0 20.48-5.12 25.6-10.24L512 435.2l143.36 143.36c5.12 5.12 15.36 10.24 25.6 10.24 20.48 0 35.84-15.36 35.84-35.84 0-10.24-5.12-20.48-10.24-25.6z"  horiz-adv-x="1024" />

    
    <glyph glyph-name="jian" unicode="&#58977;" d="M160.256 351.232h703.488V416.768H160.256"  horiz-adv-x="1024" />

    
    <glyph glyph-name="shanchu" unicode="&#59139;" d="M864 691.2h-211.2v44.8c0 44.8-38.4 76.8-76.8 76.8H448c-44.8 0-76.8-38.4-76.8-76.8v-51.2H160c-6.4 0-12.8-6.4-12.8-12.8s6.4-12.8 12.8-12.8h51.2v-627.2c0-44.8 38.4-76.8 76.8-76.8h448c44.8 0 76.8 38.4 76.8 76.8V652.8h51.2c6.4 0 12.8 6.4 12.8 12.8s-6.4 25.6-12.8 25.6z m-467.2 44.8c0 25.6 19.2 51.2 51.2 51.2h128c25.6 0 51.2-19.2 51.2-51.2v-51.2H396.8v51.2z m384-704c0-25.6-19.2-51.2-51.2-51.2h-448c-25.6 0-51.2 19.2-51.2 51.2V652.8H780.8v-620.8zM416 518.4c-6.4 0-19.2-6.4-19.2-12.8v-384c0-6.4 6.4-12.8 12.8-12.8s12.8 6.4 12.8 12.8v384c12.8 6.4 0 12.8-6.4 12.8zM608 518.4c-6.4 0-19.2-6.4-19.2-12.8v-384c0-6.4 6.4-12.8 12.8-12.8s12.8 6.4 12.8 12.8v384c12.8 6.4 0 12.8-6.4 12.8z"  horiz-adv-x="1024" />

    
    <glyph glyph-name="guanzhu1" unicode="&#58986;" d="M668.9792 847.3088a302.8992 302.8992 0 0 1-163.2768-48.0256 304.0256 304.0256 0 0 1-150.7328 40.0384C183.2448 839.3216 43.52 695.4496 43.52 518.6048c0-62.7712 18.0736-124.0064 53.1968-178.3296l410.88-433.3568 413.8496 431.9744a325.4784 325.4784 0 0 1 59.0336 187.7504c0 176.8448-139.7248 320.6656-311.5008 320.6656zM354.9696 767.0272c30.6176 0 60.7744-6.144 89.7536-18.2784a322.7136 322.7136 0 0 1-87.1936-222.0544c0-19.9168 15.8208-36.1472 35.2768-36.1472s35.2768 16.1792 35.2768 36.1472c0 136.96 108.032 248.3712 240.896 248.3712 132.8128 0 240.8448-111.4112 240.8448-248.3712a252.5184 252.5184 0 0 0-80.1792-185.1392l-322.048-331.9808-315.0336 324.7104-2.304 3.1232a249.8048 249.8048 0 0 0-76.1344 181.248c-0.0512 136.9088 107.9808 248.3712 240.8448 248.3712zM663.296 454.656a32.4608 32.4608 0 0 1 47.36 0.6144 35.9936 35.9936 0 0 1-0.6144 48.896l-33.1776 34.2528 33.1776 34.2016a36.096 36.096 0 0 1 0.6656 48.896 33.0752 33.0752 0 0 1-47.36 0.6656l-55.808-57.4976a34.3552 34.3552 0 0 1-9.6256-25.856 34.816 34.816 0 0 1 9.6256-26.6752l55.7568-57.4976z"  horiz-adv-x="1024" />

    
    <glyph glyph-name="tuanduiguanli" unicode="&#58903;" d="M578.2 320.4c66.2 44.1 110.3 121.4 110.3 209.7 0 137.9-115.9 253.8-253.8 253.8S175.4 673.5 175.4 535.6c0-88.3 44.1-165.5 110.3-209.7-110.3-55.2-193-160-215.1-286.9v-16.6c0-22.1 16.6-38.6 38.6-38.6 22.1 0 33.1 16.6 38.6 38.6 16.6 137.9 132.4 253.8 281.4 253.8h22.1c143.4-5.5 264.8-115.9 281.4-253.8 0-22.1 16.6-38.6 38.6-38.6 22.1 0 38.6 16.6 38.6 38.6V39c-33.1 126.9-115.8 231.7-231.7 281.4zM445.8 348h-22.1c-99.3 5.5-171 88.3-171 182.1 0 99.3 82.8 182.1 182.1 182.1s182-82.9 182-182.2c0-93.8-77.2-171-171-182zM754.7 331.4c66.2 44.1 88.3 121.4 93.8 204.1 5.5 60.7-16.6 110.3-49.7 154.5-5.5 11-16.6 16.6-27.6 16.6-22.1 0-33.1-16.6-33.1-33.1 0-11 5.5-16.6 11-22.1 22.1-27.6 38.6-66.2 38.6-104.8-5.5-71.7-22.1-137.9-82.8-171h-5.5c-22.1-16.6-27.6-22.1-33.1-44.1 0-22.1 22.1-38.6 38.6-44.1h-5.5c116-33.2 182.2-127 187.8-259.4 0-22.1 16.6-38.6 33.1-38.6 16.6 0 33.1 16.6 33.1 38.6v16.5c-5.6 137.9-82.8 248.3-198.7 286.9z"  horiz-adv-x="1024" />

    
    <glyph glyph-name="fenxiang" unicode="&#58888;" d="M325.973333 252.586667s90.453333 138.24 186.026667 174.08c124.586667 47.786667 204.8 34.133333 204.8 34.133333v-153.6l238.933333 221.866667-238.933333 238.933333v-153.6c-394.24-11.946667-390.826667-361.813333-390.826667-361.813333zM819.2 85.333333H153.6v546.133334h290.133333c32.426667 30.72 102.4 80.213333 204.8 85.333333H102.4c-20.48 0-34.133333-15.36-34.133333-34.133333v-648.533334c0-17.066667 10.24-34.133333 34.133333-34.133333h768c22.186667 0 34.133333 13.653333 34.133333 34.133333v307.2l-85.333333-85.333333v-170.666667z"  horiz-adv-x="1024" />

    
    <glyph glyph-name="dayu-gengduo1" unicode="&#58893;" d="M962.001 603.375l-39.375 33.75-410.625-421.875-410.625 421.875-39.375-33.75 450-472.5z"  horiz-adv-x="1024" />

    
    <glyph glyph-name="video" unicode="&#59103;" d="M164.362 164.467c-30.687 0-55.655 24.969-55.655 55.654v327.757c0 30.686 24.969 55.655 55.655 55.655h495.565c30.686 0 55.641-24.969 55.641-55.655v-327.757c0-30.686-24.955-55.654-55.641-55.654h-495.565zM164.362 568.045c-11.105 0-20.152-9.047-20.152-20.167v-327.757c0-11.105 9.047-20.152 20.152-20.152h495.565c11.105 0 20.152 9.047 20.152 20.152v327.757c0 11.12-9.047 20.167-20.152 20.167h-495.565zM897.513 186.662c-3.372 0.003-6.523 0.946-9.206 2.581l-199.622 119.749c-4.045 2.445-6.918 6.318-8.090 10.92-0.339 1.292-0.533 2.775-0.533 4.304 0 3.375 0.948 6.529 2.593 9.209 3.185 5.325 8.874 8.556 15.178 8.556 3.215 0 6.359-0.873 9.118-2.529l172.84-103.693v285.821l-173.013-101.005c-2.557-1.527-5.639-2.43-8.933-2.43-0.005 0-0.009 0-0.014 0-6.274-0-12.162 3.373-15.321 8.79-4.945 8.461-2.087 19.352 6.36 24.283l199.695 116.613c2.564 1.519 5.65 2.416 8.947 2.416 0 0 0-0 0-0 3.102 0 6.16-0.801 8.861-2.358 5.488-3.145 8.919-9.047 8.919-15.379v-348.095c0-6.375-3.459-12.291-9.005-15.449-2.517-1.449-5.535-2.304-8.752-2.304-0.008 0-0.015 0-0.023 0z"  horiz-adv-x="1024" />

    
    <glyph glyph-name="icondayu1" unicode="&#58896;" d="M725.333 633.088v49.579l-426.667-257.195v-43.392l426.667-254.080v52.694l-389.035 223.104 389.035 229.291z"  horiz-adv-x="1024" />

    
    <glyph glyph-name="dayu-gengduo2" unicode="&#58897;" d="M0 134.4l44.799-38.4 467.2 480 467.2-480 44.799 38.4-512 537.6z"  horiz-adv-x="1024" />

    
    <glyph glyph-name="jian1" unicode="&#59033;" d="M512.233314 832.859961c-246.762103 0-446.708971-199.946868-446.708972-446.708971 0-246.702752 199.946868-446.708971 446.708972-446.708972s446.709995 199.946868 446.709994 446.708972S758.936065 832.859961 512.233314 832.859961z m0-833.798077c-213.824947 0-387.148457 173.382862-387.148458 387.148457 0 213.824947 173.323511 387.148457 387.148458 387.148458s387.148457-173.323511 387.148457-387.148458c-0.060375-213.82597-173.323511-387.148457-387.148457-387.148457zM734.102471 417.117258H289.35927c-18.365276 0-33.253358-14.888082-33.253358-33.253358 0-18.365276 14.888082-33.253358 33.253358-33.253358h444.743201c18.365276 0 33.253358 14.888082 33.253358 33.253358 0 18.365276-14.888082 33.253358-33.253358 33.253358z"  horiz-adv-x="1024" />

    
    <glyph glyph-name="zuoxuanzhuan1" unicode="&#58943;" d="M775.344 459.496l-45.36 0.112 99.888-107.72 97.28 107.072-44.608 0.112-0.008-0.112-29.488-32.872c-20.696 190.664-181.568 339.048-376.944 339.048-209.44 0-379.216-170.488-379.216-380.792s169.784-380.792 379.216-380.792c151.84 0 282.856 89.632 343.416 219.088h-50.752c-57.168-104.168-167.568-174.752-294.4-174.752-185.52 0-335.92 151.032-335.92 337.328 0 186.304 150.4 337.328 335.92 337.328 172.832 0 315.16-131.064 333.832-299.616l-32.856 36.568z"  horiz-adv-x="1024" />

    
    <glyph glyph-name="attachment" unicode="&#58898;" d="M672 800L149.333333 288c-42.666667-32-64-85.333333-64-138.666667s21.333333-106.666667 64-149.333333 96-64 149.333334-64c64 0 117.333333 21.333333 160 64l490.666666 490.666667 42.666667-42.666667-501.333333-490.666667c-53.333333-53.333333-117.333333-85.333333-192-85.333333-64 0-128 32-181.333334 74.666667l-10.666666 10.666666c-53.333333 53.333333-74.666667 117.333333-74.666667 192 0 64 21.333333 128 74.666667 181.333334L629.333333 842.666667l21.333334-21.333334-21.333334 21.333334c32 32 85.333333 53.333333 128 53.333333 53.333333 0 106.666667-21.333333 138.666667-53.333333 42.666667-42.666667 53.333333-85.333333 53.333333-138.666667 0-42.666667-10.666667-96-53.333333-128L448 138.66666699999996c-21.333333-21.333333-53.333333-32-74.666667-32s-53.333333 0-74.666666 21.333333v10.666667c-21.333333 21.333333-32 42.666667-32 74.666666 0 21.333333 10.666667 53.333333 32 74.666667l426.666666 426.666667 42.666667-42.666667-437.333333-426.666667c-10.666667-10.666667-10.666667-21.333333-10.666667-32s0-32 10.666667-42.666666 32-10.666667 42.666666-10.666667 21.333333 0 32 10.666667l448 448c32 21.333333 42.666667 53.333333 42.666667 85.333333 0 42.666667-10.666667 74.666667-42.666667 96-21.333333 21.333333-53.333333 42.666667-96 42.666667-32 0-64-21.333333-85.333333-42.666667z"  horiz-adv-x="1024" />

    
    <glyph glyph-name="kaishi" unicode="&#59047;" d="M288.24064 95.47264a25.60512 25.60512 0 0 0-25.6 25.6V646.92736a25.58976 25.58976 0 0 0 38.61504 22.0416l447.51872-264.34048a25.61024 25.61024 0 0 0-0.10752-44.14976L301.15328 98.9696a25.56928 25.56928 0 0 0-12.91264-3.49696z m25.6 506.5984v-436.38784l371.38432 217.02144-371.38432 219.3664z"  horiz-adv-x="1024" />

    
    <glyph glyph-name="tupianzhengzaijiazai" unicode="&#58902;" d="M537.108 617.117c-69.656 0-126.349 56.665-126.349 126.325 0 69.632 56.693 126.326 126.349 126.326 69.658 0 126.325-56.665 126.325-126.326s-56.665-126.325-126.325-126.325zM268.123 516.806c-63.618 0-115.405 51.76-115.405 115.406S204.505 747.62 268.123 747.62c63.623 0 115.406-51.76 115.406-115.407 0.001-63.618-51.783-115.406-115.406-115.406z m-114.3-261.057c-56.124 0-101.765 45.64-101.765 101.764 0 56.1 45.642 101.74 101.765 101.74 56.1 0 101.74-45.643 101.74-101.74 0-56.123-45.642-101.766-101.74-101.764z m114.3-258.633c-47.579 0-86.29 38.71-86.29 86.293 0 47.579 38.736 86.29 86.29 86.29s86.295-38.71 86.295-86.29c0-47.583-38.712-86.293-86.295-86.293z m268.985-98.884c-41.567 0-75.373 33.806-75.373 75.375s33.806 75.373 75.373 75.373c41.569 0 75.375-33.803 75.375-75.373 0-41.569-33.806-75.375-75.375-75.375z m273.058 127.403c-33.534 0-60.844 27.281-60.844 60.844s27.31 60.844 60.844 60.844c33.537 0 60.844-27.282 60.844-60.844s-27.31-60.844-60.844-60.844z m111.82 281.497c-27.522 0-49.925 22.402-49.925 49.925 0 27.523 22.403 49.925 49.926 49.925 27.524 0 49.955-22.4 49.955-49.925s-22.432-49.925-49.955-49.925zM771.429 628.468c0-21.395 17.345-38.738 38.738-38.738s38.738 17.345 38.738 38.738c0 21.395-17.345 38.738-38.738 38.738s-38.738-17.34-38.738-38.738z"  horiz-adv-x="1024" />

    
    <glyph glyph-name="dayu-gengduo3" unicode="&#59046;" d="M740.2666666666668-127.99999999999989l38.399999999999984 44.80000000000001L298.66666666666674 384l479.9999999999998 467.2000000000003-38.40000000000001 44.79999999999998-537.5999999999998-512.0000000000002z"  horiz-adv-x="1024" />

    
    <glyph glyph-name="mine" unicode="&#58900;" d="M946.174 74.65200000000004c-5.259 46.734-44.229 74.06-78.501 90.628s-221.401 116.797-224.395 121.126 5.348 52.035 8.103 59.396 44.673 66.527 58.289 96.262c11.283 24.628 26.044 67.727 27.126 105.007 1.633 55.353-0.399 93.235-25.91 142.407-22.432 43.171-49.239 75.625-85.405 99.228-38.448 25.083-76.967 35.939-117.609 35.897v0.001h-0.122v-0.001c-40.643 0.044-79.165-12.493-117.609-37.577-32.644-21.305-66.491-61.15-85.405-97.548-25.511-49.171-27.542-87.055-25.91-142.407 1.085-37.278 15.844-80.378 27.126-105.007 13.617-29.734 55.534-88.902 58.289-96.262s11.101-55.067 8.103-59.396-189.33-105.783-224.395-121.126-73.243-43.893-78.501-90.628 28.213-80.63 50.188-90.146 36.515-8.4 60.324-8.403c99.201-0.007 556.508-0.007 655.708 0 23.808 0.002 38.351-1.113 60.324 8.403s55.445 43.413 50.188 90.146zM829.438 35.72900000000004h-643.254c-45.275 0.004-53.917 9.565-54.791 33.334s8.828 27.476 49.743 47.876 218.928 112.91 235.173 126.784c8.069 6.894 14.001 20.339 15.927 30.329 4.237 21.958-7.631 80.507-12.51 91.658s-47.282 70.107-58.942 96.105c-8.898 19.866-20.895 57.977-21.689 85.633-1.321 45.773-1.615 74.455 18.999 115.053 17.491 34.401 35.895 54.926 63.201 73.141 28.377 18.928 57.34 30.197 86.099 30.197 0.119 0 0.236-0.002 0.356-0.004v-0.001h0.122v0.001c0.119 0.001 0.236 0.004 0.356 0.004 28.758 0 57.723-9.594 86.099-28.519 27.306-18.214 45.71-40.419 63.201-74.819 20.613-40.598 21.999-69.28 20.679-115.053-0.795-27.655-14.471-65.77-23.369-85.633-11.657-25.997-54.062-84.957-58.942-96.105s-16.749-69.699-12.51-91.658c1.926-9.987 7.863-23.435 15.927-30.329 16.245-13.876 200.43-110.236 235.173-126.784s50.188-27.138 49.743-47.876-9.519-33.33-54.791-33.334z"  horiz-adv-x="1024" />

    


  </font>
</defs>
</svg>
